<svg version="1.2" xmlns="http://www.w3.org/2000/svg" viewBox="0 0 1080 1080" width="1080" height="1080">
	<style>
		.s0 { opacity: .24;fill: #d5ffff } 
		.s1 { fill: #d5ffff } 
	</style>
	<path id="Path 0" fill-rule="evenodd" class="s0" d="m176.99 685.7h25.15l-5.15 12.29c-2.83 6.76-5.93 17.16-6.9 23.11-0.97 5.95-2.41 11.32-3.21 11.94-0.81 0.62-8.1 2.19-16.21 3.49-8.76 1.41-20.75 5.24-29.5 9.42-9.86 4.7-18.39 10.73-25.72 18.14-7.01 7.09-13.75 16.74-26.4 42.37v24.79c0 24.63 0.04 24.87 7.28 39.43 4.01 8.05 10.2 18.14 13.77 22.41 3.57 4.27 11.79 11.62 18.28 16.35 6.63 4.82 17.41 10.32 24.59 12.55 9.35 2.89 17.93 3.92 31.96 3.8 11.57-0.09 19.17 0.63 19.17 1.82 0 1.13 3.14 0.7 7.38-1.02 5.86-2.37 7.67-2.47 8.82-0.49 0.79 1.37 1.43 4.26 1.42 6.42-0.01 2.17 2.88 9.59 6.43 16.49 4.1 8.01 10.71 16.48 18.24 23.38 6.49 5.95 15.34 12.86 19.66 15.37 4.33 2.5 13.18 5.92 19.67 7.61 6.49 1.68 18.88 3.04 27.53 3.03 8.66-0.02 20.16-1.23 25.57-2.69 5.41-1.46 12.93-3.97 16.72-5.57 3.78-1.6 12.41-7.47 19.17-13.05 7.15-5.9 14.56-14.25 17.7-19.95 4.76-8.63 6.18-9.81 11.8-9.84 5.41-0.02 6.57 0.81 7.49 5.38 0.61 2.98 2.89 11.16 5.08 18.19 2.19 7.04 7.76 18.1 12.38 24.59 4.62 6.49 13.18 16.11 19.02 21.37 5.83 5.27 16.58 12.57 23.89 16.23 7.3 3.66 19.69 8.42 27.53 10.59 8.88 2.45 20.19 3.92 29.99 3.9 8.66-0.02 21.49-1.29 28.52-2.81 7.03-1.53 18.54-5.61 25.57-9.08 7.03-3.46 17.21-9.57 22.61-13.57 5.41-3.99 12.55-10.74 15.87-14.98 3.33-4.25 7.94-10.82 10.27-14.6 2.32-3.79 4.27-7.77 4.32-8.85 0.06-1.08-5-3.16-11.24-4.61-6.24-1.45-17.54-5.56-25.12-9.13-9.8-4.62-17.02-9.94-25.07-18.5-6.22-6.61-11.87-14.45-12.56-17.42-0.99-4.27-0.26-6.16 3.44-8.93 2.58-1.94 5.8-3.49 7.15-3.45 1.35 0.05 8.43 6.08 15.73 13.4 10.13 10.16 16.08 14.37 25.08 17.74 6.49 2.43 17.11 5.25 23.6 6.27 6.49 1.01 16.23 1.35 21.63 0.77 5.41-0.59 15.15-2.74 21.64-4.76 6.49-2.03 15.5-6.6 20.03-10.15 4.53-3.56 11.23-10.45 14.88-15.32 3.66-4.86 8.14-9.51 9.96-10.32 1.82-0.81 5.53-0.59 8.23 0.49 2.7 1.08 5.36 3.74 5.9 5.9 0.54 2.16-0.93 7.7-3.27 12.29-2.34 4.6-8.32 12.35-13.28 17.23-4.96 4.88-13.89 11.28-19.83 14.22-5.95 2.93-16.57 6.68-23.6 8.33-7.04 1.64-15 3.37-17.71 3.83-2.7 0.47-5.58 2.68-6.39 4.92-1.22 3.38 0.31 5.42 8.85 11.81 5.68 4.25 14.31 9.43 19.18 11.5 4.87 2.08 13.72 5 19.67 6.51 6.02 1.52 19.96 2.68 31.46 2.62 17.22-0.09 23.27-1.01 36.39-5.52 8.65-2.97 19.71-7.93 24.58-11.01 4.87-3.08 12.89-9.88 17.83-15.11 4.93-5.23 11.32-13.04 14.19-17.37 2.87-4.33 6.91-12.73 8.99-18.68 2.07-5.95 4.31-15.02 4.98-20.16 0.72-5.56 2.21-9.32 3.67-9.29 1.35 0.02 6.44 0.97 11.31 2.1 4.87 1.14 16.37 2.11 25.57 2.17 10.24 0.06 21.29-1.21 28.51-3.28 6.49-1.86 17.96-7.51 25.48-12.54 7.52-5.03 17.17-13.58 21.44-18.99 4.27-5.41 10.44-15.58 13.72-22.61 4.83-10.37 6.12-16.13 6.86-30.49 0.55-10.73-0.08-21.96-1.6-28.52-1.39-5.94-4.74-15.24-7.45-20.65-2.71-5.4-10.46-15.58-17.23-22.61-6.76-7.03-16.58-15.14-21.84-18.02-5.25-2.88-14.41-6.63-31.18-11.44l-1.31-13.3c-0.73-7.31-2.78-17.28-4.56-22.14-1.78-4.87-3.62-10.4-4.09-12.3-0.74-2.97 0.68-3.44 21.76-3.53l2.41 7.42c1.33 4.08 2.96 11.4 4.85 25.12l17.02 8.13c14.19 6.78 19.56 10.79 32.27 24.09 8.48 8.88 17.77 20.98 20.94 27.28 3.13 6.22 7.1 16.61 8.81 23.1 1.8 6.83 3.11 19.68 3.1 30.49 0 10.27-0.92 22.66-2.04 27.53-1.11 4.87-5.07 15.27-8.8 23.11-4.31 9.09-11.23 18.98-19.06 27.26-6.76 7.15-17.61 16.48-24.1 20.75-6.49 4.27-16.66 9.54-22.61 11.72-5.95 2.18-17.46 4.84-25.57 5.91-8.44 1.12-19.57 1.27-37.31-1.23l-3.2 9.83c-1.76 5.41-6.11 15.15-9.67 21.64-3.97 7.26-12.77 17.84-22.88 27.53-9.68 9.27-20.87 17.87-27.24 20.93-5.95 2.86-15.02 6.62-20.16 8.36-5.14 1.74-15.76 4.16-23.6 5.37-7.95 1.23-21.23 1.66-29.99 0.97-8.66-0.68-20.16-2.45-25.57-3.93-5.41-1.49-14.7-4.65-20.65-7.04-5.95-2.39-15.91-7.8-33.44-19.74l-14.25 14.43c-11.47 11.61-17.92 16.22-32.95 23.54-10.27 5-24.43 10.62-31.46 12.48-8.62 2.28-20.17 3.37-35.4 3.34-17.32-0.03-26.31-1.07-38.36-4.44-8.65-2.42-21.48-7.41-28.51-11.09-7.03-3.69-18.54-11.43-25.57-17.21-7.03-5.78-15.1-13.55-17.93-17.26-2.84-3.71-8.44-12.94-12.47-20.51-4.02-7.57-7.66-14.21-8.08-14.75-0.43-0.54-4.77 2.78-9.66 7.38-4.89 4.59-13.1 11.05-18.24 14.34-5.13 3.29-15.53 7.9-23.11 10.26-10.53 3.27-18.84 4.29-35.4 4.34-17.24 0.05-24.62-0.87-36.38-4.52-8.11-2.51-20.4-8.27-27.31-12.78-6.92-4.51-15.81-11.74-19.77-16.07-3.96-4.33-10.69-14.29-14.97-22.15-7.47-13.74-7.99-14.23-13.67-13.01-3.24 0.7-12.54 1.26-20.65 1.26-8.11-0.01-20.28-1.46-27.04-3.22-6.76-1.76-16.94-5.53-22.62-8.38-5.68-2.86-15.19-9-21.14-13.65-5.95-4.66-14.95-14.05-20.01-20.88-5.06-6.82-10.98-16.39-13.16-21.25-2.18-4.87-5.35-14.16-7.04-20.65-1.69-6.49-3.08-19.33-3.08-28.52 0-9.2 1.35-22.03 3.01-28.52 1.65-6.49 5.78-17.55 9.17-24.58 4.28-8.87 11.05-17.7 22.09-28.83 11.45-11.55 19.48-17.74 28.69-22.1 7.03-3.34 18.74-7.63 26.02-9.53 12.09-3.16 13.35-3.98 14.41-9.36 0.64-3.25 2.52-9.66 4.18-14.26zm652.52 99.17c5.95 0.55 17.01 3.11 24.59 5.7 7.57 2.58 17.52 6.59 22.12 8.91 4.6 2.32 12.44 7.98 17.43 12.58 4.99 4.6 9.86 9.91 10.82 11.8 0.99 1.97 1.01 4.92 0.03 6.89-0.94 1.89-3.59 4.1-5.9 4.91-3.35 1.18-6.05-0.36-13.53-7.72-5.14-5.06-14.65-11.69-21.14-14.72-6.49-3.04-18.44-6.86-26.55-8.48-8.11-1.62-19.84-3.4-26.06-3.96-7.36-0.66-11.42-1.92-11.62-3.63-0.17-1.44 4.04-5.02 9.35-7.95 8.2-4.53 11.27-5.18 20.46-4.33zm-561 1.24c1.35-0.06 7.34 2.33 13.3 5.3 5.97 2.98 10.83 6.52 10.82 7.87-0.02 1.35-0.69 2.45-1.5 2.44-0.81-0.01-10.77 1.67-22.13 3.74-11.36 2.06-25.52 5.54-31.47 7.73-6.27 2.32-15.57 8.19-22.12 13.97-6.22 5.49-12.42 10.01-13.77 10.04-1.35 0.04-4.06-1.51-6.03-3.44-2.09-2.06-3.15-5.13-2.56-7.44 0.56-2.16 5.26-7.87 10.45-12.69 5.2-4.81 14.76-11.21 21.25-14.22 6.49-3 18.44-7.2 26.55-9.33 8.11-2.12 15.86-3.91 17.21-3.97z"/>
	<path id="Path 0" fill-rule="evenodd" class="s1" d="m542.1 13c2.86-0.05 6.52 1.42 8.14 3.25 2.24 2.53 3.07 9.48 3.44 28.61 0.48 24.63 0.37 25.39-4.42 30.18-3.65 3.65-6 4.54-9.1 3.44-2.3-0.81-5.18-2.71-6.39-4.23-1.39-1.73-2.21-12.45-2.21-28.7 0-18.98 0.72-26.81 2.68-29.2 1.47-1.79 5.01-3.3 7.86-3.35zm-63.73 24.9c2.21 0.66 4.61 1.76 5.32 2.45 0.72 0.69 4.56 10.11 8.54 20.92 5.38 14.62 6.77 20.68 5.41 23.6-1 2.17-3.52 4.51-5.59 5.21-2.07 0.71-5.97 0.23-8.68-1.04-3.75-1.78-6.41-6.49-11.27-19.96-3.49-9.7-6.49-19.58-6.65-21.95-0.18-2.58 1.55-5.55 4.29-7.38 2.59-1.71 6.36-2.53 8.63-1.85zm131.86-1.25c2.16-0.05 5.7 1.78 7.86 4.06 3.81 4.01 3.83 4.44 0.61 13.34-1.83 5.05-6.03 15.16-9.34 22.46-5.76 12.72-6.31 13.28-12.9 13.28-5.17 0-7.43-1.1-9.09-4.43-1.6-3.2-1.63-6.33-0.1-11.3 1.16-3.79 4.93-13.06 8.37-20.61 3.45-7.55 7.26-14.4 8.46-15.21 1.21-0.82 3.96-1.53 6.13-1.59zm-165.64 62.9c5.68-0.06 7.3 1.36 15.68 13.77 5.13 7.61 9.56 13.86 9.83 13.88 0.27 0.03 6.24-2.54 13.27-5.71 7.04-3.16 18.54-7.3 25.57-9.2 8.32-2.25 19.99-3.46 33.44-3.48 13.29-0.02 25.2 1.17 33.43 3.34 7.03 1.85 18.89 6.21 39.91 15.99l3.15-4.87c1.74-2.68 5.81-8.88 9.06-13.77 4.76-7.17 7.13-8.99 12.29-9.38 5.08-0.4 6.91 0.5 8.92 4.39 2.3 4.44 1.71 6.34-15.31 36.65l7.14 7.26c3.92 3.99 10.45 11.68 14.49 17.09 4.05 5.41 10.46 16.03 14.24 23.6 3.79 7.57 8.56 20.4 10.6 28.52 2.05 8.11 3.74 19.17 3.76 24.58 0.02 7.01-1.26 11.75-4.45 16.5-2.47 3.66-8.46 8.72-13.33 11.24-4.87 2.51-14.16 5.93-20.65 7.59-6.49 1.65-19.77 3.68-47.2 5.97l0.35 6.89c0.24 4.57 1.89 8.07 4.92 10.44 2.51 1.96 8.1 4.43 12.43 5.49 4.32 1.06 19.37 5.52 33.43 9.92 14.06 4.4 31.76 10.91 39.34 14.47 7.57 3.55 19.01 11.2 25.42 16.99 6.41 5.8 14.84 15.4 18.74 21.35 3.9 5.95 9.93 19.67 13.4 30.49 3.46 10.81 8.48 32.5 11.14 48.18 2.66 15.69 7.1 35.16 9.87 43.27 2.77 8.11 7.75 19.17 11.06 24.58 3.32 5.41 10.4 15.37 15.73 22.13 5.33 6.76 16.55 17.41 24.93 23.66 8.38 6.26 20.55 13.91 27.04 17.01 6.49 3.1 15.34 6.07 19.67 6.59 5.58 0.68 11.72-0.55 21.14-4.23 7.3-2.84 16.37-5.17 20.16-5.17 3.79 0 8.87 0.99 11.31 2.2 2.43 1.22 6.87 4.54 9.85 7.38 3.44 3.27 6.23 8.78 7.59 15 1.49 6.76 1.55 11.99 0.19 16.72-1.85 6.42-1.6 7.11 3.72 10.32 3.13 1.9 6.71 5.44 7.96 7.87 1.25 2.43 2.95 6.64 3.78 9.34 0.84 2.71 0.75 8.02-0.18 11.8-0.94 3.79-5.08 10.47-9.2 14.85-5.56 5.92-10.9 9.08-20.76 12.29-7.95 2.6-18.21 4.32-25.57 4.31-6.76 0-18.04-0.9-25.07-1.99-7.04-1.09-13.04-1.74-13.35-1.46-0.31 0.29 0.93 5.39 2.76 11.34 2.31 7.5 3.03 14.72 2.34 23.6-0.67 8.61-2.85 16.53-6.7 24.29-3.14 6.33-10.13 15.84-15.54 21.13-5.41 5.3-11.82 10.96-14.26 12.59-2.43 1.62-4.42 4.06-4.42 5.41-0.01 1.35-6.86 6.2-15.25 10.76-8.38 4.57-16.78 8.33-18.68 8.36-1.89 0.03-14.28 4.13-27.53 9.1-13.25 4.98-24.29 9.18-24.52 9.34-0.24 0.17 4.38 3.84 10.25 8.17 5.88 4.33 12.46 10.96 14.62 14.75 2.17 3.78 3.97 9.09 4 11.8 0.03 2.7-1.71 7.79-3.87 11.31-2.16 3.51-7.24 7.94-11.3 9.83-6.18 2.89-12.63 3.4-39.82 3.16-17.85-0.16-49.71-2.19-70.81-4.51-21.09-2.32-61.36-7.8-140.62-20.13l-50.15 7.27c-30.93 4.49-61.08 7.65-78.66 8.25-27.63 0.93-28.74 0.81-35.41-3.74-3.78-2.59-8.09-7.33-9.56-10.53-1.72-3.73-2.19-8.31-1.31-12.71 0.89-4.49 4.57-10.01 19.72-24.85l-19.66-7.5c-10.82-4.12-27.44-11.15-36.93-15.6-9.5-4.46-17.22-8.55-17.16-9.09 0.06-0.54-5.31-4.96-11.94-9.83-6.63-4.87-14.99-12.83-18.59-17.7-3.59-4.87-8.96-14.16-11.93-20.65-4.15-9.09-5.37-14.74-5.33-24.58 0.04-7.18 1.48-16.24 3.29-20.65 1.77-4.33 2.99-8.04 2.72-8.25-0.28-0.22-6.25 0.43-13.28 1.43-7.04 1-17.88 1.84-24.1 1.86-6.22 0.02-16.84-1.74-23.6-3.92-6.76-2.18-15.17-6.16-18.68-8.85-3.52-2.69-8.16-7.77-10.32-11.28-2.16-3.52-3.93-9.71-3.93-13.77-0.01-4.06 1.32-10.03 2.94-13.28 1.62-3.24 5.61-7.44 8.86-9.34 4.47-2.6 5.61-4.39 4.68-7.37-0.67-2.17-1.13-8.36-1.01-13.77 0.13-5.67 1.73-12.33 3.79-15.73 1.96-3.25 6.62-7.92 10.34-10.38 4.64-3.07 9.57-4.45 15.62-4.37 5.23 0.06 14.09 2.41 21.64 5.73 10.93 4.8 13.92 5.35 20.65 3.82 4.33-0.98 13.18-4.38 19.67-7.55 6.49-3.17 18.88-11.37 27.53-18.21 8.65-6.85 19.8-17.73 24.78-24.18 4.98-6.45 12.63-18.37 17.01-26.48 4.38-8.11 9.35-19.62 11.04-25.57 1.69-5.95 5.34-24.09 8.11-40.32 2.78-16.22 6.43-34.36 8.12-40.31 1.7-5.95 6.76-17.82 11.26-26.38 5.67-10.79 11.95-19.08 20.47-27.04 6.76-6.32 17.83-14.09 24.59-17.28 6.76-3.19 23.35-9.39 36.87-13.77 13.52-4.39 29.9-9.47 36.39-11.29 6.49-1.83 13.7-5.15 16.03-7.38 2.32-2.23 4.76-6.48 5.41-9.46 0.98-4.51 0.44-5.54-3.25-6.22-2.43-0.45-12.39-1.75-22.13-2.89-9.73-1.14-23.45-3.88-30.48-6.09-7.03-2.22-15.83-6.45-19.54-9.41-3.72-2.96-8-8.48-9.52-12.26-1.84-4.62-2.32-10.13-1.46-16.72 0.71-5.41 3-16.25 5.09-24.09 2.09-7.84 6.35-19.35 9.46-25.57 3.12-6.22 9.44-16.18 14.04-22.13 4.61-5.94 11.38-13.91 21.71-24.58l-8.91-13.27c-4.9-7.31-8.98-14.67-9.08-16.36-0.1-1.69 0.81-4.79 2.02-6.88 1.44-2.49 4.4-3.83 8.54-3.88zm42.72 44.92c-7.03 3.46-17.21 10.11-22.62 14.78-5.41 4.67-14.23 15.07-19.6 23.11-5.37 8.04-11.42 19.04-13.46 24.45-2.03 5.41-4.87 16.03-6.31 23.6-2.01 10.56-2.08 14.37-0.31 16.37 1.27 1.43 7.62 4.2 14.11 6.14 6.49 1.95 19.77 4.77 29.5 6.25 12.28 1.88 35.77 2.65 76.71 2.54 50.37-0.15 62.16-0.76 80.63-4.17 11.9-2.19 24.95-5.43 29.01-7.2 5.97-2.6 7.37-4.24 7.35-8.62-0.02-2.98-1.4-11.16-3.08-18.19-1.67-7.04-6.74-19.84-11.27-28.46-4.54-8.61-12.67-20.45-18.08-26.3-5.4-5.85-13.81-13.58-18.68-17.17-4.87-3.59-16.37-9.36-25.57-12.82-14.55-5.48-19.65-6.39-39.33-6.97-17.53-0.52-25.27 0.12-34.42 2.85-6.49 1.93-17.55 6.35-24.58 9.81zm21.43 154.77c-1.4 5.14-5.49 11.12-11.79 17.21l-9.64 9.34c14.48 12.62 23.55 18.6 29.5 21.42 8.88 4.21 13.63 5.13 26.55 5.1 12.15-0.02 17.86-1.03 25.07-4.42 5.14-2.42 13.77-8.6 19.17-13.74l9.83-9.34c-14.27-12.99-18.04-18.48-19.44-23.6-1.19-4.33-2.16-9.86-2.17-12.29-0.01-4.41-0.12-4.43-32.46-4.43-29.59 0-32.45 0.31-32.46 3.45-0.01 1.89-0.98 6.98-2.16 11.3zm-89.28 46.11c5.28 32.86 8.61 56.56 10.81 73.86 2.2 17.31 5.3 47.4 6.89 66.87 1.59 19.47 2.91 48.01 2.92 63.43l0.03 28.02c17.53-1.79 25.71-3.87 29.5-5.77 3.78-1.89 14.4-8.04 23.6-13.66 9.19-5.62 21.58-12.03 27.53-14.25 8.14-3.03 14.23-3.86 24.59-3.34 10.98 0.55 16.94 2.2 29.5 8.18 8.65 4.12 22.81 11.8 31.46 17.05 12.39 7.53 18.14 9.8 27.05 10.68l11.3 1.11c0.03-41.91 0.94-66.91 2.03-82.6 1.09-15.68 3.78-42.23 5.98-59 2.19-16.77 6.15-43.32 8.79-59 2.63-15.69 4.82-29.4 4.86-30.48 0.03-1.09-9.91-4.9-22.11-8.48l-22.16-6.51c-20.26 20.76-30.88 29.37-36.67 32.54-5.79 3.16-14.96 6.91-20.37 8.33-5.41 1.42-15.14 2.6-21.63 2.62-6.49 0.02-16.89-1.3-23.11-2.93-6.22-1.63-15.07-4.85-19.67-7.17-4.59-2.32-14.99-10.77-23.11-18.78-8.11-8-15.19-14.44-15.73-14.29-0.54 0.14-10.28 3.26-21.63 6.92zm-54.72 47.8c-2.9 7.3-8.76 30.75-13.02 52.12-4.26 21.36-10.12 45.48-13.02 53.59-2.9 8.11-8.9 20.94-13.33 28.52-4.43 7.57-12.29 18.85-17.46 25.07-5.17 6.22-15.82 16.64-23.66 23.15-7.85 6.51-20.9 15.21-29.01 19.33-8.12 4.13-19.52 8.76-25.35 10.29-9.5 2.5-11.28 3.86-17.21 13.12-3.64 5.67-9.49 12.41-13 14.97-3.52 2.55-9.49 5.66-13.28 6.91-3.78 1.25-10.2 2.26-14.26 2.24-4.05-0.02-9.14 0.85-11.31 1.93-2.16 1.09-3.93 3.74-3.93 5.9 0 2.26 2.73 5.76 6.39 8.2 3.52 2.34 11.71 4.98 18.2 5.87 7.03 0.96 18.15 0.78 27.53-0.45 8.65-1.13 24.58-5 35.4-8.58 10.82-3.58 26.3-9.82 34.42-13.87 8.11-4.04 23.16-13.32 33.43-20.63 10.28-7.3 24.66-19.59 31.96-27.31 7.3-7.71 17.87-20.89 23.48-29.27 5.62-8.38 14.57-24.53 19.91-35.89 5.33-11.36 13.22-29.94 17.52-41.3 7.51-19.83 7.77-21.28 6.48-36.39-0.73-8.65-3.92-33.43-7.07-55.06-3.16-21.64-5.74-39.56-5.74-39.83 0-0.27-0.88-0.49-1.95-0.49-1.08 0-7.55 5.53-14.4 12.29-9.56 9.44-13.67 15.37-17.72 25.57zm317.44-5.41c-2.24 15.14-5.38 38.6-6.98 52.12l-2.91 24.58c12.57 35.06 21.51 55.85 27.98 68.84 6.47 12.98 15.37 28.91 19.78 35.4 4.4 6.49 15.13 18.96 23.83 27.72 8.7 8.76 24.22 21.53 34.5 28.39 10.28 6.85 24.44 15.08 31.47 18.28 7.03 3.2 21.63 8.91 32.45 12.7 16.96 5.93 22.91 7.02 43.27 7.89 21.25 0.91 24.53 0.59 32.94-3.23 6.06-2.75 9.73-5.79 10.45-8.66 0.61-2.43 0.83-4.66 0.49-4.95-0.34-0.29-7.7-1.84-16.35-3.44-8.65-1.61-19.49-5.13-24.09-7.84-5.15-3.02-11.01-9.07-15.24-15.73-6.3-9.9-7.85-11.08-18.2-13.95-6.22-1.72-17.94-6.59-26.05-10.83-8.12-4.23-21.17-13-29.01-19.48-7.85-6.49-19.71-18.65-26.37-27.03-6.66-8.39-15.48-22.32-19.6-30.98-4.12-8.65-9.76-23.7-12.53-33.43-2.78-9.74-6.81-28.32-8.97-41.3-2.16-12.98-5.76-29.8-8.01-37.37-2.25-7.57-5.33-16.2-6.84-19.18-1.51-2.97-5.62-8.62-9.14-12.56-3.51-3.93-9.62-9.75-13.57-12.94-5.25-4.24-7.46-5.09-8.2-3.18-0.56 1.44-2.85 15.02-5.1 30.16zm-10.23 224.7l2.2 12.29c16 1.34 30.82 2.74 43.26 3.97 12.44 1.23 24.83 2.79 27.54 3.46 3.6 0.89 0.52-2.95-11.57-14.42-9.06-8.6-20.2-20.5-24.76-26.45-4.56-5.95-13.11-19.22-19-29.5-5.89-10.27-12.77-23.55-15.29-29.5-2.51-5.95-5.01-11.26-5.54-11.8-0.53-0.54-0.53 17.16 0 39.34 0.53 22.17 1.96 45.84 3.16 52.61zm-267.24-67.36c-5.95 11.89-15.68 28.41-21.63 36.69-5.96 8.28-14.82 19.34-19.7 24.58-4.89 5.24-13.3 13.43-18.69 18.2-5.39 4.77-8.47 8.2-6.85 7.61 1.62-0.58 12.68-2.04 24.58-3.22 11.9-1.19 27.61-2.63 34.91-3.19 8.12-0.63 13.58-1.98 14.05-3.48 0.42-1.35 1.79-9.54 3.05-18.19 1.25-8.66 2.01-30.34 1.69-48.19l-0.6-32.45zm104.24 29.87c-7.03 4.31-17.21 10.62-22.62 14.03-5.41 3.41-14.7 7.1-20.65 8.21-5.95 1.11-14.58 2.01-19.18 2-7.1-0.02-8.49 0.64-9.22 4.4-0.48 2.43-1.41 7.97-2.07 12.29-0.65 4.33-2.48 12.07-4.04 17.21-1.65 5.39-4.73 10.5-7.28 12.08-2.87 1.78-16.53 3.55-38.85 5.04-18.93 1.27-44.15 4-56.05 6.07-11.9 2.07-26.5 5.21-32.45 6.98-5.95 1.77-15.24 5.45-20.65 8.19-5.41 2.74-12.79 7.28-16.4 10.11-3.61 2.82-8.84 9.99-11.63 15.94-4.14 8.85-4.82 12.43-3.71 19.67 0.74 4.87 3.05 12.39 5.13 16.72 2.09 4.32 7.16 11.28 11.27 15.46 4.11 4.17 12.79 11.2 19.28 15.62 6.49 4.41 17.99 10.88 25.56 14.37 7.57 3.48 25.72 10.43 40.32 15.44 14.6 5.01 36.73 11.68 49.17 14.82 12.44 3.14 44.74 10.21 71.78 15.7 27.04 5.49 67.31 12.61 89.49 15.81 22.17 3.2 59.79 8.04 83.58 10.76 26.49 3.02 54.14 4.94 71.3 4.94 16.71 0 28.42-0.8 29-1.97 0.55-1.08-1.89-4.29-5.4-7.13-3.52-2.84-10.38-7.16-15.25-9.6-4.86-2.45-21.68-8.92-37.36-14.39-15.69-5.48-40.91-14.35-56.05-19.72-15.15-5.38-49.66-18.22-76.71-28.54-27.04-10.33-63.77-24.42-81.61-31.31-17.85-6.9-36.88-14.53-42.29-16.96-5.41-2.44-21.78-9.12-36.38-14.86-14.61-5.74-31.64-12.75-37.86-15.58-6.22-2.83-12.2-6.92-13.28-9.08q-1.96-3.94 0-7.87c1.08-2.16 3.74-4.82 5.9-5.9 3.03-1.51 7.9-0.42 21.15 4.72 9.46 3.68 32.69 12.9 51.62 20.49 18.93 7.59 45.92 18.31 59.99 23.83 14.06 5.51 34.41 13.58 45.23 17.92 17.36 6.97 20.36 7.64 25.57 5.65 3.24-1.24 22.71-8.7 43.26-16.59 20.56-7.9 52.86-20.53 71.79-28.07 18.93-7.55 43.71-17.46 55.07-22.02 15.66-6.29 21.6-7.85 24.58-6.45 2.16 1.02 4.47 3.54 5.12 5.61 0.65 2.07 0.43 5.75-0.49 8.19-0.93 2.43-5.88 6.49-11.02 9.04-5.14 2.53-19.08 8.42-30.98 13.07-11.89 4.65-30.04 11.97-40.31 16.26-10.28 4.29-31.08 12.45-46.22 18.15-15.14 5.69-31.08 11.86-35.4 13.72l-7.87 3.37c22.86 9.04 49.41 18.77 73.75 27.47 24.34 8.69 46.47 16.25 49.17 16.79 2.98 0.6 18.47-3.47 39.33-10.33 18.93-6.22 41.06-14.68 49.17-18.8 8.11-4.11 20.87-12.16 28.36-17.87 8.95-6.85 15.48-13.76 19.12-20.23 3.03-5.41 6.07-13.82 6.76-18.68 0.68-4.87 0.26-12.62-0.93-17.21-1.2-4.6-4.74-11.24-7.88-14.75-3.14-3.52-10.88-9.48-17.21-13.25-6.32-3.77-17.25-8.44-24.28-10.37-7.04-1.94-22.97-5.2-35.41-7.25-12.43-2.04-37.21-4.79-55.06-6.09-20.22-1.47-34.12-3.39-36.88-5.08-2.43-1.49-5.86-6.03-7.63-10.08-1.76-4.06-4.25-13.57-5.53-21.14l-2.34-13.77c-19.61-1.88-28.85-3.57-33.17-4.96-4.33-1.4-14.51-6.69-22.62-11.78-8.11-5.08-19.62-11.68-25.57-14.67-6.08-3.06-15.12-5.76-20.65-6.17-5.41-0.4-12.93 0.46-16.72 1.91-3.78 1.44-12.63 6.16-19.66 10.47zm-337.25 37.6c1.23 3.26 3.69 5.49 6.39 5.79 2.71 0.31 6.64-1.76 10.28-5.41 3.25-3.24 5.91-6.56 5.93-7.37 0.01-0.81-2.65-3.03-5.9-4.92-3.26-1.89-7.71-3.44-9.89-3.44-2.31 0-4.98 2.1-6.4 5.03-1.74 3.61-1.86 6.51-0.41 10.32zm718.4-6.5c10.21 9.97 14.54 12.84 16.22 12.82 1.68-0.02 4.12-1.14 5.44-2.5 1.32-1.35 2.39-5.11 2.39-8.35 0-3.25-1.12-7.02-2.49-8.4-1.37-1.37-4.26-2.47-6.42-2.44-2.17 0.02-6.46 2.03-9.54 4.45zm-537.99 234.36c-3.52 2.53-6.4 5.71-6.41 7.06 0 1.9 4.8 2.14 21.15 1.08 11.63-0.76 30.23-2.53 41.32-3.93 11.1-1.41 20.19-3.01 20.21-3.55 0.01-0.55-10.84-3.44-24.11-6.43-13.28-3-25.91-5.82-28.07-6.27-2.17-0.46-7.03 1.03-10.82 3.3-3.79 2.28-9.76 6.21-13.27 8.74zm6.79-726.98c0.86 0.02 9.09 5.01 18.28 11.09 9.2 6.08 18.73 12.93 21.19 15.21 2.47 2.28 4.46 5.7 4.43 7.59-0.03 1.89-1.82 5.21-3.99 7.37-2.16 2.17-5.03 3.95-6.39 3.97-1.35 0.02-10.86-5.37-21.14-11.98-10.28-6.61-19.8-13.49-21.17-15.28-1.38-1.79-2.44-4.4-2.37-5.8 0.06-1.4 2.25-4.72 4.86-7.38 2.6-2.65 5.44-4.81 6.3-4.79zm371.53 2.57c2.73 1.27 5.45 4.08 6.05 6.24 0.6 2.17 0.54 5.49-0.14 7.38-0.67 1.89-10.07 9.19-20.89 16.22-10.81 7.04-21.21 12.77-23.1 12.74-1.9-0.03-5.02-1.58-6.95-3.44-1.93-1.87-3.47-5.17-3.41-7.33 0.05-2.16 0.74-5.01 1.54-6.32 0.79-1.31 10.55-8.11 21.69-15.1 18.4-11.55 20.7-12.5 25.21-10.39zm-400.16 66.23c0.92 0 10.75 1.41 21.84 3.14 11.08 1.72 22.15 4.38 24.58 5.9 2.67 1.67 4.42 4.71 4.42 7.68 0 2.7-1.39 6.24-3.09 7.86-1.7 1.63-4.79 2.95-6.88 2.95-2.09 0-12.86-1.35-23.95-2.99-14.29-2.13-20.89-3.99-22.65-6.4-1.37-1.86-2.64-5.09-2.81-7.17-0.18-2.08 1.29-5.4 3.27-7.37 1.98-1.98 4.35-3.6 5.27-3.6zm422.55 0.19c1.62-0.14 4.59 0.86 6.59 2.23 2.19 1.51 3.61 4.82 3.58 8.4-0.03 3.24-1.22 6.95-2.65 8.24-1.43 1.29-11.23 3.73-21.78 5.41-10.54 1.69-21.38 3.06-24.09 3.06-2.7 0-6.24-1.32-7.87-2.95-1.62-1.62-2.99-4.94-3.03-7.37-0.05-2.44 1.39-5.76 3.2-7.38 1.8-1.62 12.24-4.4 23.19-6.16 10.95-1.77 21.24-3.34 22.86-3.48zm-291.01 19.48c2.13 0 7.19 2.21 11.25 4.92 4.29 2.87 10.25 4.95 14.26 4.98 4.17 0.03 9.78-1.91 14.26-4.93 4.05-2.73 8.48-4.99 9.83-5.01 1.35-0.01 3.58 1.09 4.95 2.46 1.37 1.37 2.49 4.26 2.5 6.43 0 2.16-2.45 6.32-5.44 9.23-3 2.92-8.77 6.68-12.83 8.36-4.05 1.68-10.03 3.06-13.27 3.06-3.25 0-9.22-1.38-13.28-3.06-4.05-1.69-9.45-5.01-11.98-7.38-2.53-2.37-5.41-5.86-6.39-7.76-1.11-2.13-1.02-4.93 0.24-7.37 1.11-2.16 3.76-3.93 5.9-3.93zm112.53 0.06c0.81-0.04 4.8 2.15 8.85 4.86 5 3.34 10.08 4.93 15.74 4.92 6.02-0.01 10.01-1.39 14.26-4.93 3.24-2.7 8.11-4.91 10.81-4.91 3.77 0 5.2 1.26 6.11 5.4 0.82 3.73 0.02 6.95-2.57 10.33-2.07 2.7-7.7 6.92-12.5 9.36-4.87 2.47-12.22 4.41-16.6 4.38-4.33-0.03-11.41-1.65-15.74-3.59-4.32-1.95-9.89-6.13-12.36-9.3-2.47-3.17-4.61-7.27-4.76-9.11-0.15-1.84 1.43-4.25 3.51-5.35 2.08-1.1 4.44-2.03 5.25-2.06zm-33.92 202.76c10.27 0.08 20.89 0.76 23.6 1.52 3.57 1.01 8.01 6.72 16.26 20.95 7.99 13.78 11.08 21.01 10.47 24.48-0.48 2.7-5.66 12.88-11.5 22.61-9.77 16.27-11.26 17.84-18.34 19.33-4.24 0.89-15.53 1.33-25.08 0.98-15.78-0.58-17.74-1.09-21.33-5.55-2.18-2.71-7.84-12-12.58-20.66-4.73-8.65-8.62-17.06-8.63-18.68 0-1.62 4.98-11.55 11.08-22.07 6.1-10.52 12.5-20.01 14.23-21.08 1.72-1.08 11.54-1.9 21.82-1.83zm-12.79 24.33l-10.81 20.65c7.62 15.24 10.94 20.27 12.29 21 1.35 0.74 5.78 1.18 9.83 0.99 4.06-0.2 9.37-0.32 11.8-0.28 3.4 0.06 5.87-2.57 10.63-11.31l6.21-11.38c-8.88-15.24-12.12-20.11-12.92-20.66-0.8-0.54-7.21-0.54-14.24 0z"/>
</svg>
